<svg width="24" height="24" viewBox="0 0 24 24" fill="none" xmlns="http://www.w3.org/2000/svg">
<path fill-rule="evenodd" clip-rule="evenodd" d="M11.4913 2.41888C11.7786 2.15371 12.2214 2.15371 12.5087 2.41888L22.5087 11.6489C22.7356 11.8583 22.811 12.1855 22.6985 12.4731C22.5861 12.7607 22.3088 12.95 22 12.95H19.33V20.97C19.33 21.3842 18.9942 21.72 18.58 21.72H5.42003C5.00582 21.72 4.67003 21.3842 4.67003 20.97V12.95H2.00003C1.69121 12.95 1.41396 12.7607 1.30152 12.4731C1.18907 12.1855 1.26441 11.8583 1.49134 11.6489L11.4913 2.41888ZM3.91838 11.45H5.42003C5.83424 11.45 6.17003 11.7858 6.17003 12.2V20.22H17.83V12.2C17.83 11.7858 18.1658 11.45 18.58 11.45H20.0817L12 3.99064L3.91838 11.45Z" fill="#202020"/>
<path fill-rule="evenodd" clip-rule="evenodd" d="M12.3044 14.7825C12.5806 14.7825 12.8044 15.0064 12.8044 15.2825L12.8044 20.97L11.1954 20.97L11.1954 15.2825C11.1954 15.0064 11.4193 14.7825 11.6954 14.7825L12.3044 14.7825Z" fill="#202020"/>
</svg>
